<svg clip-rule="evenodd" fill-rule="evenodd" stroke-linejoin="round" stroke-miterlimit="2" viewBox="0 0 512 512" xmlns="http://www.w3.org/2000/svg"><g transform="scale(1.65161 2.0898)"><path d="m0 0h310v245h-310z" fill="none"/><path d="m37.742 160.897c-22.487-9.766-37.742-28.666-37.742-50.36 0-31.692 32.556-57.422 72.656-57.422 3.623 0 7.184.21 10.665.616 5.701-27.211 35.644-47.989 71.679-47.989s65.978 20.778 71.679 47.989c3.481-.406 7.042-.616 10.665-.616 40.1 0 72.656 25.73 72.656 57.422 0 21.694-15.255 40.594-37.742 50.36 4.022 7.131 6.258 15.026 6.258 23.332 0 31.692-32.557 57.421-72.657 57.421-19.794 0-37.75-6.269-50.859-16.43-13.109 10.161-31.065 16.43-50.859 16.43-40.1 0-72.657-25.729-72.657-57.421 0-8.306 2.236-16.201 6.258-23.332zm85.14-37.292 21.803 5.569-13.961 15.138c-1.156-.183-2.352-.279-3.576-.279-10.025 0-18.164 6.433-18.164 14.356s8.139 14.355 18.164 14.355 18.165-6.432 18.165-14.355c0-3.261-1.379-6.27-3.701-8.681l13.388-14.61 13.388 14.61c-2.322 2.411-3.7 5.42-3.7 8.681 0 7.923 8.139 14.355 18.164 14.355s18.164-6.432 18.164-14.355-8.139-14.356-18.164-14.356c-1.224 0-2.42.096-3.576.279l-13.961-15.138 21.803-5.569c3.333 3.127 8.324 5.116 13.898 5.116 10.025 0 18.164-6.433 18.164-14.356s-8.139-14.355-18.164-14.355c-9.89 0-17.945 6.26-18.16 14.036l-21.481 5.545.037-18.589c6.865-2.049 11.752-7.294 11.752-13.434 0-7.923-8.139-14.355-18.164-14.355s-18.164 6.432-18.164 14.355c0 6.14 4.887 11.385 11.752 13.434l.037 18.589-21.481-5.545c-.215-7.776-8.27-14.036-18.16-14.036-10.025 0-18.164 6.432-18.164 14.355s8.139 14.356 18.164 14.356c5.574 0 10.565-1.989 13.898-5.116z" fill="#ff85be" transform="matrix(.945312 0 0 .945312 8.47656 5.5777)"/></g></svg>