<svg clip-rule="evenodd" fill-rule="evenodd" stroke-linejoin="round" stroke-miterlimit="2" viewBox="0 0 512 512" xmlns="http://www.w3.org/2000/svg"><g transform="scale(1.65161 2.0898)"><path d="m0 0h310v245h-310z" fill="none"/><path d="m5.483 86.592c12.406-9.564 43.381-30.799 66.97-24.741 6.539 1.679 12.644 4.271 18.024 7.653l19.298 12.131-8.634-18.254c-2.407-5.089-3.64-10.479-3.64-15.912 0-18.921 32.723-35.157 48.797-41.99l8.702 17.011 8.702-17.011c16.074 6.833 48.797 23.069 48.797 41.99 0 5.433-1.233 10.823-3.64 15.912l-8.634 18.254 19.298-12.131c5.38-3.382 11.485-5.974 18.024-7.653 23.315-5.987 53.845 14.687 66.529 24.403l-17.816 12.118 22.1 1.009c-3.411 14.46-12.9 43.161-35.277 48.908-6.539 1.679-13.405 2.417-20.274 2.181l-24.634-.85 20.561 10.757c5.733 2.999 10.739 6.787 14.78 11.182 13.966 15.192-.112 43.218-8.069 56.343l-18.921-9.027 5.802 17.283c-17.554 1.966-57.473 4.46-71.848-11.177-4.041-4.396-7.052-9.329-8.89-14.565l-6.59-18.778-6.59 18.778c-1.838 5.236-4.849 10.169-8.89 14.565-14.093 15.33-52.735 13.234-70.788 11.293l4.782-17.555-18.565 9.833c-7.871-12.829-22.666-41.545-8.465-56.993 4.041-4.395 9.047-8.183 14.78-11.182l20.561-10.757-24.634.85c-6.869.236-13.735-.502-20.274-2.181-22.445-5.764-31.923-34.623-35.308-49.039l21.422-1.671z" fill="#ff85be"/><path d="m122.882 123.605c-3.333 3.127-8.324 5.116-13.898 5.116-10.025 0-18.164-6.433-18.164-14.356s8.139-14.355 18.164-14.355c9.89 0 17.945 6.26 18.16 14.036l21.481 5.545-.037-18.589c-6.865-2.049-11.752-7.294-11.752-13.434 0-7.923 8.139-14.355 18.164-14.355s18.164 6.432 18.164 14.355c0 6.14-4.887 11.385-11.752 13.434l-.037 18.589 21.481-5.545c.215-7.776 8.27-14.036 18.16-14.036 10.025 0 18.164 6.432 18.164 14.355s-8.139 14.356-18.164 14.356c-5.574 0-10.565-1.989-13.898-5.116l-21.803 5.569 13.961 15.138c1.156-.183 2.352-.279 3.576-.279 10.025 0 18.164 6.433 18.164 14.356s-8.139 14.355-18.164 14.355-18.164-6.432-18.164-14.355c0-3.261 1.378-6.27 3.7-8.681l-13.388-14.61-13.388 14.61c2.322 2.411 3.701 5.42 3.701 8.681 0 7.923-8.14 14.355-18.165 14.355s-18.164-6.432-18.164-14.355 8.139-14.356 18.164-14.356c1.224 0 2.42.096 3.576.279l13.961-15.138z" fill="#fff" transform="matrix(.775501 0 0 .775501 34.7973 26.4608)"/></g></svg>