<svg height="512pt" preserveAspectRatio="xMidYMid meet" viewBox="0 0 512 512" width="512pt" xmlns="http://www.w3.org/2000/svg"><path d="m2310 4945c-401-238-650-503-691-739-25-146 2-281 115-581 41-109 74-200 73-202-2-1-52 37-113 85-202 163-284 222-364 262-97 49-207 80-280 80-199-1-453-118-726-335-100-80-224-193-224-204 0-4 62-57 137-116l136-109-34-7c-19-4-96-13-171-19-86-8-138-17-138-24 0-25 51-231 80-327 106-343 262-577 443-662 121-58 156-62 485-61l303 2-200-134c-216-145-314-231-380-333-145-226-115-564 96-1064 31-75 50-107 59-103 7 3 74 46 149 96s139 90 141 87c3-2-12-81-32-176-20-94-35-173-33-175 12-12 223-26 387-26 301 0 507 46 654 146 72 49 114 96 171 189 52 88 87 184 148 408 30 108 56 197 59 197s29-89 59-197c77-283 124-392 219-510 123-152 387-234 754-234 149 0 394 16 406 26 2 2-17 81-43 175-25 95-44 174-42 176 1 2 70-37 152-86 129-77 152-88 161-75 27 37 137 333 168 454 82 316 71 526-35 692-66 102-164 188-380 333l-200 134 303-2c329-1 364 3 485 61 183 86 340 323 447 676 39 130 79 307 71 315-3 3-69 9-148 14-78 4-157 9-176 10-33 3-31 5 113 128l147 125-78 74c-159 149-410 322-563 386-228 96-382 96-577 1-92-45-167-98-368-259-65-53-120-95-122-94-1 2 32 93 73 202 113 300 140 435 115 581-35 199-212 414-517 627-83 58-263 167-275 167-4 0-38-76-75-170-38-93-71-170-74-170s-36 77-74 170c-37 94-71 170-75 170s-49-25-101-55zm346-1589c28-13 65-41 82-62 92-111 57-284-70-350l-28-15v-150c0-117 3-150 13-147 6 3 69 24 140 47 112 38 127 45 127 65 0 37 49 123 87 152 193 147 451-62 349-283-65-138-250-174-364-70l-23 21-134-44c-74-24-135-47-135-50s37-58 83-121l83-114 68-7c90-9 150-47 187-120 77-150-19-322-186-336-56-4-72-1-120 22-94 47-144 147-124 253 5 26 16 57 24 70 15 22 13 28-66 138-46 63-85 115-89 115s-43-52-89-115c-79-110-81-116-66-138 42-64 35-179-15-252-95-138-315-122-392 29-31 61-35 133-9 192 41 91 98 132 198 142l67 7 83 114c46 63 83 118 83 121s-61 26-135 50l-134 44-23-21c-114-104-299-68-364 70-102 221 156 430 349 283 38-29 87-115 87-152 0-20 15-27 128-65 70-23 133-44 140-47 9-3 12 30 12 147v150l-28 15c-96 50-143 165-112 276 23 84 128 160 220 160 26 0 66-10 96-24z" transform="matrix(.1 0 0 -.1 0 512)"/></svg>